<mxfile host="app.diagrams.net" agent="Mozilla/5.0 (Macintosh; Intel Mac OS X 10_15_7) AppleWebKit/537.36 (KHTML, like Gecko) Chrome/129.0.0.0 Safari/537.36 Edg/129.0.0.0" version="24.7.17">
  <diagram name="Page-1" id="dLZH6r6Zi3f8FfsaQLzG">
    <mxGraphModel dx="896" dy="584" grid="1" gridSize="10" guides="1" tooltips="1" connect="1" arrows="1" fold="1" page="1" pageScale="1" pageWidth="827" pageHeight="1169" math="0" shadow="0">
      <root>
        <mxCell id="0" />
        <mxCell id="1" parent="0" />
        <mxCell id="-EbhHbLHNX-YYcThIDMa-30" value="" style="rounded=0;whiteSpace=wrap;html=1;" vertex="1" parent="1">
          <mxGeometry x="60" y="40" width="630" height="380" as="geometry" />
        </mxCell>
        <mxCell id="-EbhHbLHNX-YYcThIDMa-1" value="" style="rounded=0;whiteSpace=wrap;html=1;" vertex="1" parent="1">
          <mxGeometry x="130" y="140" width="430" height="190" as="geometry" />
        </mxCell>
        <mxCell id="-EbhHbLHNX-YYcThIDMa-2" value="Query" style="rounded=0;whiteSpace=wrap;html=1;" vertex="1" parent="1">
          <mxGeometry x="210" y="180" width="100" height="30" as="geometry" />
        </mxCell>
        <mxCell id="-EbhHbLHNX-YYcThIDMa-3" value="SQLGenerate" style="rounded=0;whiteSpace=wrap;html=1;" vertex="1" parent="1">
          <mxGeometry x="320" y="180" width="100" height="30" as="geometry" />
        </mxCell>
        <mxCell id="-EbhHbLHNX-YYcThIDMa-4" value="SchemaInit" style="rounded=0;whiteSpace=wrap;html=1;" vertex="1" parent="1">
          <mxGeometry x="430" y="180" width="100" height="30" as="geometry" />
        </mxCell>
        <mxCell id="-EbhHbLHNX-YYcThIDMa-5" value="Datasouce" style="rounded=0;whiteSpace=wrap;html=1;" vertex="1" parent="1">
          <mxGeometry x="210" y="220" width="100" height="30" as="geometry" />
        </mxCell>
        <mxCell id="-EbhHbLHNX-YYcThIDMa-6" value="Executor" style="rounded=0;whiteSpace=wrap;html=1;" vertex="1" parent="1">
          <mxGeometry x="320" y="220" width="100" height="30" as="geometry" />
        </mxCell>
        <mxCell id="-EbhHbLHNX-YYcThIDMa-7" value="ResultConvert" style="rounded=0;whiteSpace=wrap;html=1;" vertex="1" parent="1">
          <mxGeometry x="430" y="220" width="100" height="30" as="geometry" />
        </mxCell>
        <mxCell id="-EbhHbLHNX-YYcThIDMa-9" value="SQLTrack" style="rounded=0;whiteSpace=wrap;html=1;" vertex="1" parent="1">
          <mxGeometry x="210" y="260" width="100" height="30" as="geometry" />
        </mxCell>
        <mxCell id="-EbhHbLHNX-YYcThIDMa-10" value="ExecutorFactory" style="rounded=0;whiteSpace=wrap;html=1;" vertex="1" parent="1">
          <mxGeometry x="320" y="260" width="210" height="30" as="geometry" />
        </mxCell>
        <mxCell id="-EbhHbLHNX-YYcThIDMa-27" value="接口层" style="text;html=1;align=center;verticalAlign=middle;whiteSpace=wrap;rounded=0;" vertex="1" parent="1">
          <mxGeometry x="140" y="180" width="60" height="30" as="geometry" />
        </mxCell>
        <mxCell id="-EbhHbLHNX-YYcThIDMa-28" value="基础组件" style="text;html=1;align=center;verticalAlign=middle;whiteSpace=wrap;rounded=0;" vertex="1" parent="1">
          <mxGeometry x="140" y="220" width="60" height="30" as="geometry" />
        </mxCell>
        <mxCell id="-EbhHbLHNX-YYcThIDMa-29" value="数据层" style="text;html=1;align=center;verticalAlign=middle;whiteSpace=wrap;rounded=0;" vertex="1" parent="1">
          <mxGeometry x="140" y="260" width="60" height="30" as="geometry" />
        </mxCell>
      </root>
    </mxGraphModel>
  </diagram>
</mxfile>
